<svg width="21" height="24" viewBox="0 0 21 24" version="1.1" xmlns="http://www.w3.org/2000/svg" xmlns:xlink="http://www.w3.org/1999/xlink">
  <!-- Generator: Sketch 59.1 (86144) - https://sketch.com -->
  <g id="Page-2" stroke="none" stroke-width="1" fill="none" fill-rule="evenodd">
      <g id="Group-4" transform="translate(1.000000, 0.344089)">
          <g id="Group-2" transform="translate(0.000000, 3.153894)">
              <g id="Group">
                  <path d="M9.5,19 C14.7467051,19 19,14.7467051 19,9.5 C19,4.25329488 14.7467051,0 9.5,0 C4.25329488,0 -1.77635684e-15,4.25329488 -1.77635684e-15,9.5" id="Oval" stroke="#FFFFFF" stroke-width="1.5" stroke-linecap="round" stroke-linejoin="round" transform="translate(9.500000, 9.500000) rotate(-270.000000) translate(-9.500000, -9.500000) "></path>
                  <g id="Group-3" transform="translate(4.750000, 5.937500)" fill="#FFFFFF">
                      <path d="M2.73114864e-14,2.61948529 L1.368,2.61948529 L1.368,7.125 L2.8975,7.125 L2.8975,0 L1.5675,0 C1.5675,0.314338235 1.52317063,0.562311811 1.4345,0.743933824 C1.35217063,0.925595129 1.197,1.06180836 0.969,1.15257353 C0.741,1.24333869 0.418,1.28878676 2.73114864e-14,1.28878676 L2.73114864e-14,2.61948529 Z" id="Path-Copy"></path>
                      <path d="M4.99355625,6.56115108 C5.43055625,6.93700764 6.01005625,7.125 6.73205625,7.125 C7.24505625,7.125 7.69155625,7.0156902 8.07155625,6.79694245 C8.45796875,6.57140288 8.75246875,6.26384892 8.95505625,5.87428058 C9.16405625,5.47792041 9.26855625,5.03017311 9.26855625,4.53129496 C9.26855625,4.07342401 9.18305625,3.67014388 9.01205625,3.32158273 C8.84105625,2.97302158 8.5972625,2.70301484 8.28055625,2.51169065 C7.96396875,2.31344649 7.59655625,2.21438849 7.17855625,2.21438849 C6.89355625,2.21438849 6.6307625,2.2621875 6.39005625,2.35791367 C6.1557625,2.44671987 5.95946875,2.58345324 5.80105625,2.76798561 L5.80105625,1.28147482 L8.92655625,1.28147482 L8.92655625,0 L4.42355625,0 L4.42355625,4.05971223 L5.77255625,4.05971223 C5.86755625,3.82046088 6.00055625,3.64618031 6.17155625,3.5368705 C6.34255625,3.4275607 6.55796875,3.37284173 6.81755625,3.37284173 C7.12155625,3.37284173 7.35905625,3.48215153 7.53005625,3.70089928 C7.70746875,3.91964703 7.79605625,4.20669739 7.79605625,4.56205036 C7.79605625,4.93790692 7.70105625,5.23866906 7.51105625,5.46420863 C7.32746875,5.68295638 7.0677625,5.79226619 6.73205625,5.79226619 C6.46605625,5.79226619 6.24446875,5.72396358 6.06705625,5.58723022 C5.8897625,5.45049685 5.78846875,5.25917266 5.76305625,5.0131295 L4.27155625,5.0131295 C4.31596875,5.66245279 4.55655625,6.17837455 4.99355625,6.56115108 Z" id="Path-Copy-2"></path>
                  </g>
              </g>
          </g>
          <polygon id="Triangle" stroke="#FFFFFF" fill="#FFFFFF" stroke-linejoin="round" transform="translate(7.065817, 3.143240) rotate(-90.000000) translate(-7.065817, -3.143240) " points="7.05516213 1.1875 9.3715989 5.09897935 4.76003426 5.09897935"></polygon>
      </g>
  </g>
</svg>