<svg xmlns:xlink="http://www.w3.org/1999/xlink" width="24" height="24" viewBox="0 0 24 24" fill="none" xmlns="http://www.w3.org/2000/svg">
  <path fill-rule="evenodd" clip-rule="evenodd" d="M2.50005 10C2.77619 10 3.00005 9.77614 3.00005 9.5V6.5C3.00005 5.67157 3.67162 5 4.50005 5H9.50005C9.77619 5 10 4.77614 10 4.5C10 4.22386 9.77619 4 9.50005 4H4.50005C3.11934 4 2.00005 5.11929 2.00005 6.5V9.5C2.00005 9.77614 2.22391 10 2.50005 10ZM21.5 14C21.2239 14 21 14.2239 21 14.5V17.5C21 18.3284 20.3285 19 19.5 19H14.5C14.2239 19 14 19.2239 14 19.5C14 19.7761 14.2239 20 14.5 20H19.5C20.8808 20 22 18.8807 22 17.5V14.5C22 14.2239 21.7762 14 21.5 14ZM14.5 5C14.2239 5 14 4.77614 14 4.5C14 4.22386 14.2239 4 14.5 4H19.5C20.8808 4 22 5.11929 22 6.5V9.5C22 9.77614 21.7762 10 21.5 10C21.2239 10 21 9.77614 21 9.5V6.5C21 5.67157 20.3285 5 19.5 5H14.5ZM10 19.5C10 19.2238 9.77614 19 9.5 19H4.5C3.67157 19 3 18.3284 3 17.5V14.5C3 14.2238 2.77614 14 2.5 14C2.22386 14 2 14.2238 2 14.5V17.5C2 18.8807 3.11929 20 4.5 20H9.5C9.77614 20 10 19.7761 10 19.5Z" fill="white"></path>
</svg>