<svg xmlns:xlink="http://www.w3.org/1999/xlink" width="24" height="24" viewBox="0 0 24 24" fill="none" xmlns="http://www.w3.org/2000/svg">
  <path fill-rule="evenodd" clip-rule="evenodd" d="M8.5 3C8.22386 3 8 3.22386 8 3.5V6.5C8 7.32843 7.32843 8 6.5 8H1.5C1.22386 8 1 8.22386 1 8.5C1 8.77614 1.22386 9 1.5 9H6.5C7.88071 9 9 7.88071 9 6.5V3.5C9 3.22386 8.77614 3 8.5 3ZM15.5 21C15.7761 21 16 20.7761 16 20.5V17.5C16 16.6716 16.6716 16 17.5 16H22.5C22.7761 16 23 15.7761 23 15.5C23 15.2239 22.7761 15 22.5 15H17.5C16.1193 15 15 16.1193 15 17.5V20.5C15 20.7761 15.2239 21 15.5 21ZM22.5 8C22.7761 8 23 8.22386 23 8.5C23 8.77614 22.7761 9 22.5 9H17.5C16.1193 9 15 7.88071 15 6.5V3.5C15 3.22386 15.2239 3 15.5 3C15.7761 3 16 3.22386 16 3.5V6.5C16 7.32843 16.6716 8 17.5 8H22.5ZM1 15.5C1 15.7761 1.22386 16 1.5 16H6.5C7.32843 16 8 16.6716 8 17.5V20.5C8 20.7761 8.22386 21 8.5 21C8.77614 21 9 20.7761 9 20.5V17.5C9 16.1193 7.88071 15 6.5 15H1.5C1.22386 15 1 15.2239 1 15.5Z" fill="white"></path>
</svg>