<svg xmlns:xlink="http://www.w3.org/1999/xlink" width="24" height="24" viewBox="0 0 24 24" fill="none" xmlns="http://www.w3.org/2000/svg">
  <path fill-rule="evenodd" clip-rule="evenodd" d="M17 4.16653V4.17157L16 5.17157V4.1665C16 4.12019 15.9878 4.07667 15.9675 4.04368C15.9384 3.99634 15.9285 3.99419 15.8864 4.02404L7.6144 9.62497H5.07692C5.04445 9.62497 5 9.6714 5 9.74997V14.25C5 14.3285 5.04445 14.375 5.07692 14.375H6.7966L5.79657 15.375H5.07692C4.48215 15.375 4 14.8713 4 14.25V9.75C4 9.12868 4.48215 8.625 5.07692 8.625H7.30769L15.3257 3.19602C15.8206 2.83869 16.4892 2.98353 16.8191 3.51952C16.9371 3.71112 17 3.93625 17 4.16653ZM15.9157 19.9963L10.4997 16.3288L9.77987 17.0486L15.4001 20.8532C15.5601 20.9495 15.7401 21 15.9231 21C16.5178 21 17 20.4778 17 19.8336V9.82843L16 10.8284V19.8336C16 19.9425 15.9469 20 15.9231 20C15.9227 20 15.9208 19.9994 15.9157 19.9963ZM3.14645 20.8536C3.34171 21.0488 3.65829 21.0488 3.85355 20.8536L20.8536 3.85355C21.0488 3.65829 21.0488 3.34171 20.8536 3.14645C20.6583 2.95118 20.3417 2.95118 20.1464 3.14645L3.14645 20.1464C2.95118 20.3417 2.95118 20.6583 3.14645 20.8536Z" fill="#fff"></path>
</svg>