<svg xmlns="http://www.w3.org/2000/svg" xmlns:xlink="http://www.w3.org/1999/xlink" width="24" height="24" viewBox="0 0 24 24">
  <g fill="none" fill-rule="evenodd">
      <mask id="b" fill="#fff">
          <path d="M3.844 15.48l2.123.107.28.403c.178.255.373.499.582.729l.332.363-.368 2.094 2.842 1.37 1.408-1.593.49.032a7.12 7.12 0 0 0 .934 0l.49-.032 1.408 1.593 2.842-1.37-.368-2.094.332-.363c.21-.23.404-.474.581-.73l.28-.402 2.124-.108.7-3.076-1.865-1.017-.077-.487a6.95 6.95 0 0 0-.207-.91l-.14-.47 1.239-1.726-1.969-2.466-1.958.824-.428-.243a6.966 6.966 0 0 0-.841-.406l-.456-.183-.577-2.045h-3.154l-.577 2.045-.456.183c-.29.117-.57.252-.84.406l-.429.243-1.958-.824-1.969 2.466 1.24 1.726-.141.47a6.95 6.95 0 0 0-.207.91l-.077.487-1.865 1.017.7 3.076zm1.582 1.08l-1.632-.082a1 1 0 0 1-.925-.777l-.7-3.076a1 1 0 0 1 .496-1.1l1.433-.782a7.95 7.95 0 0 1 .237-1.04l-.953-1.327a1 1 0 0 1 .03-1.207l1.969-2.466a1 1 0 0 1 1.17-.298l1.504.633c.309-.175.63-.33.962-.463l.443-1.573a1 1 0 0 1 .963-.728h3.154a1 1 0 0 1 .963.728l.443 1.573c.332.133.653.288.962.463l1.505-.633a1 1 0 0 1 1.169.298l1.968 2.466a1 1 0 0 1 .03 1.207l-.952 1.327c.101.338.18.685.237 1.04l1.433.782a1 1 0 0 1 .496 1.1l-.7 3.076a1 1 0 0 1-.925.777l-1.632.083c-.204.292-.426.57-.665.832l.283 1.61a1 1 0 0 1-.551 1.074l-2.842 1.37a1 1 0 0 1-1.183-.239l-1.084-1.225a8.12 8.12 0 0 1-1.064 0l-1.084 1.225a1 1 0 0 1-1.183.239l-2.842-1.37a1 1 0 0 1-.55-1.074l.282-1.61a8.037 8.037 0 0 1-.665-.832zM12 16.5a4.5 4.5 0 1 1 0-9 4.5 4.5 0 0 1 0 9zm0-1a3.5 3.5 0 1 0 0-7 3.5 3.5 0 0 0 0 7z"></path>
      </mask>
      <path d="M3.844 15.48l2.123.107.28.403c.178.255.373.499.582.729l.332.363-.368 2.094 2.842 1.37 1.408-1.593.49.032a7.12 7.12 0 0 0 .934 0l.49-.032 1.408 1.593 2.842-1.37-.368-2.094.332-.363c.21-.23.404-.474.581-.73l.28-.402 2.124-.108.7-3.076-1.865-1.017-.077-.487a6.95 6.95 0 0 0-.207-.91l-.14-.47 1.239-1.726-1.969-2.466-1.958.824-.428-.243a6.966 6.966 0 0 0-.841-.406l-.456-.183-.577-2.045h-3.154l-.577 2.045-.456.183c-.29.117-.57.252-.84.406l-.429.243-1.958-.824-1.969 2.466 1.24 1.726-.141.47a6.95 6.95 0 0 0-.207.91l-.077.487-1.865 1.017.7 3.076zm1.582 1.08l-1.632-.082a1 1 0 0 1-.925-.777l-.7-3.076a1 1 0 0 1 .496-1.1l1.433-.782a7.95 7.95 0 0 1 .237-1.04l-.953-1.327a1 1 0 0 1 .03-1.207l1.969-2.466a1 1 0 0 1 1.17-.298l1.504.633c.309-.175.63-.33.962-.463l.443-1.573a1 1 0 0 1 .963-.728h3.154a1 1 0 0 1 .963.728l.443 1.573c.332.133.653.288.962.463l1.505-.633a1 1 0 0 1 1.169.298l1.968 2.466a1 1 0 0 1 .03 1.207l-.952 1.327c.101.338.18.685.237 1.04l1.433.782a1 1 0 0 1 .496 1.1l-.7 3.076a1 1 0 0 1-.925.777l-1.632.083c-.204.292-.426.57-.665.832l.283 1.61a1 1 0 0 1-.551 1.074l-2.842 1.37a1 1 0 0 1-1.183-.239l-1.084-1.225a8.12 8.12 0 0 1-1.064 0l-1.084 1.225a1 1 0 0 1-1.183.239l-2.842-1.37a1 1 0 0 1-.55-1.074l.282-1.61a8.037 8.037 0 0 1-.665-.832zM12 16.5a4.5 4.5 0 1 1 0-9 4.5 4.5 0 0 1 0 9zm0-1a3.5 3.5 0 1 0 0-7 3.5 3.5 0 0 0 0 7z" fill="#B4B8B8" fill-rule="nonzero"></path>
      <g fill="#B4B8B8" mask="url(#b)">
          <path d="M0 0h24v24H0z"></path>
      </g>
  </g>
</svg>