<svg xmlns:xlink="http://www.w3.org/1999/xlink" width="24" height="24" viewBox="0 0 24 24" fill="none" xmlns="http://www.w3.org/2000/svg">
  <g id="volume/on 2">
  <path id="Mask" fill-rule="evenodd" clip-rule="evenodd" d="M5.30769 8.625L13.3257 3.19602C13.8206 2.83869 14.4892 2.98353 14.8191 3.51952C14.9371 3.71112 15 3.93625 15 4.16653V19.8336C15 20.4778 14.5178 21 13.9231 21C13.7401 21 13.5601 20.9495 13.4001 20.8532L5.30769 15.375H3.07692C2.48215 15.375 2 14.8713 2 14.25V9.75C2 9.12868 2.48215 8.625 3.07692 8.625H5.30769ZM13.8864 4.02406L5.61439 9.625H3.07692C3.04445 9.625 3 9.67143 3 9.75V14.25C3 14.3286 3.04445 14.375 3.07692 14.375H5.61434L5.86828 14.5469L13.9157 19.9964C13.9208 19.9995 13.9227 20 13.9231 20C13.9469 20 14 19.9425 14 19.8336V4.16653C14 4.12022 13.9878 4.0767 13.9675 4.04371C13.9384 3.99637 13.9285 3.99422 13.8864 4.02406ZM18.2524 19.4316C18.014 19.571 17.7077 19.4908 17.5684 19.2524C17.429 19.014 17.5092 18.7077 17.7476 18.5684C20.0514 17.2214 21.5007 14.7358 21.5007 11.9936C21.5007 9.25986 20.0605 6.78095 17.7682 5.43083C17.5303 5.29068 17.451 4.98419 17.5911 4.74625C17.7313 4.50831 18.0378 4.42903 18.2757 4.56917C20.8708 6.09769 22.5007 8.90297 22.5007 11.9936C22.5007 15.0939 20.8605 17.9066 18.2524 19.4316ZM17.2778 16.4157C17.0482 16.5691 16.7377 16.5074 16.5843 16.2778C16.4309 16.0482 16.4926 15.7377 16.7222 15.5843C17.808 14.8586 18.5 13.5021 18.5 11.9963C18.5 10.4952 17.8123 9.14227 16.7317 8.41476C16.5027 8.26054 16.442 7.94983 16.5962 7.72076C16.7504 7.4917 17.0611 7.43102 17.2902 7.58524C18.6529 8.50267 19.5 10.1693 19.5 11.9963C19.5 13.8291 18.6475 15.5003 17.2778 16.4157Z" fill="#fff"></path>
  </g>
</svg>