<svg xmlns:xlink="http://www.w3.org/1999/xlink" width="101" height="80" viewBox="0 0 101 80" fill="none" xmlns="http://www.w3.org/2000/svg">
  <path d="M44.59 53.6991L41.69 72.9991C41.39 75.1991 39.29 76.6991 37.09 76.3991C34.89 76.0991 33.39 73.9991 33.69 71.7991L38.39 41.0991C38.99 38.2991 41.49 36.3991 44.29 36.3991H46.29C57.69 36.3991 65.49 30.9991 65.49 24.0991C65.49 19.5991 62.29 15.8991 57.79 15.2991C52.39 14.5991 47.69 18.7991 47.69 24.0991C47.69 29.6991 53.89 36.3991 66.99 36.3991H69.39C71.99 36.3991 74.39 38.0991 75.19 40.5991" stroke="black" stroke-width="2" stroke-miterlimit="10" stroke-linecap="round" stroke-linejoin="round"></path>
  <path d="M50.3901 36.8984C50.3901 36.8984 49.9901 44.2984 56.8901 44.2984C63.7901 44.2984 63.8901 36.8984 63.8901 36.8984" stroke="black" stroke-width="2" stroke-miterlimit="10" stroke-linecap="round" stroke-linejoin="round"></path>
  <path d="M48.29 21.2008C48.29 21.2008 53.29 21.6008 56.49 18.3008C59.59 21.4008 63.99 21.2008 63.99 21.2008" stroke="black" stroke-width="2" stroke-miterlimit="10" stroke-linecap="round" stroke-linejoin="round"></path>
  <path d="M65.1904 27.8984L86.4904 30.9984L80.9904 36.2984" stroke="black" stroke-width="2" stroke-miterlimit="10" stroke-linecap="round" stroke-linejoin="round"></path>
  <path d="M33.8903 70.8008L27.0903 74.1008L31.3903 48.8008L13.0903 31.0008L38.3903 27.3008L49.7903 4.30078L54.4903 13.9008" stroke="black" stroke-width="2" stroke-miterlimit="10" stroke-linecap="round" stroke-linejoin="round"></path>
  <path d="M80.89 36.1992L68.09 48.7992L68.99 53.6992L70.69 63.9992L72.49 74.0992L49.39 62.0992L42.79 65.7992" stroke="black" stroke-width="2" stroke-miterlimit="10" stroke-linecap="round" stroke-linejoin="round"></path>
  <path d="M44.5903 53.8C44.5903 53.8 47.0903 49.5 51.5903 49.5C58.1903 49.5 59.9903 56 68.0903 50.3" stroke="black" stroke-width="2" stroke-miterlimit="10" stroke-linecap="round" stroke-linejoin="round"></path>
  <path d="M43.6904 60.1008C43.6904 60.1008 46.4904 55.8008 50.9904 55.8008C57.5904 55.8008 60.4904 61.5008 68.5904 55.8008" stroke="black" stroke-width="2" stroke-miterlimit="10" stroke-linecap="round" stroke-linejoin="round"></path>
  <path d="M49.8901 61.9012C54.4901 58.5012 62.4901 68.9012 69.8901 61.3012" stroke="black" stroke-width="2" stroke-miterlimit="10" stroke-linecap="round" stroke-linejoin="round"></path>
</svg>