<svg xmlns:xlink="http://www.w3.org/1999/xlink" width="101" height="80" viewBox="0 0 101 80" fill="none" xmlns="http://www.w3.org/2000/svg">
  <path d="M51.6919 75.0004L53.4919 68.5004C54.2919 66.0004 56.5919 64.4004 59.1919 64.4004C70.3919 64.4004 78.1919 59.6004 78.1919 52.2004C78.1919 46.9004 73.4919 42.7004 67.9919 43.5004C63.6919 44.2004 60.4919 48.0004 60.5919 52.3004C60.6919 59.2004 68.5919 64.3004 79.6919 64.3004H82.8919C85.5919 64.3004 87.9919 66.1004 88.6919 68.8004L90.0919 75.0004" stroke="black" stroke-width="2" stroke-miterlimit="10" stroke-linecap="round" stroke-linejoin="round"></path>
  <path d="M12.4917 73.7984L13.3917 68.9984C13.9917 66.2984 16.4917 64.3984 19.2917 64.3984H21.2917C32.4917 64.3984 40.2917 59.0984 40.2917 52.1984C40.2917 47.6984 37.0917 44.0984 32.6917 43.4984C27.2917 42.7984 22.7917 46.9984 22.7917 52.1984C22.7917 57.6984 28.9917 64.3984 41.8917 64.3984H44.1917C46.7917 64.3984 49.0917 66.0984 49.8917 68.5984L51.6917 74.9984" stroke="black" stroke-width="2" stroke-miterlimit="10" stroke-linecap="round" stroke-linejoin="round"></path>
  <path d="M40.8916 55.1987C51.3916 55.1987 58.6916 50.1987 58.6916 43.7987C58.6916 39.5987 55.6916 36.1987 51.5916 35.6987C46.5916 34.9987 42.2916 38.8987 42.2916 43.7987C42.2916 48.9987 48.0916 55.1987 60.0916 55.1987" stroke="black" stroke-width="2" stroke-miterlimit="10" stroke-linecap="round" stroke-linejoin="round"></path>
  <path d="M55.1917 19.0016L59.1917 24.7016C59.5917 25.2016 59.1917 25.9016 58.5917 25.9016H46.5917C45.9917 25.9016 45.3917 25.6016 44.9917 25.1016L36.0917 12.8016C35.6917 12.3016 36.0917 11.6016 36.6917 11.6016H49.2917C49.4917 11.6016 49.7917 11.7016 49.8917 11.9016L53.1917 16.2016" stroke="black" stroke-width="2" stroke-miterlimit="10" stroke-linecap="round"></path>
  <path d="M60.0918 11.4018L60.6918 12.1018C61.0918 12.5018 61.0918 13.1018 60.7918 13.4018L51.5918 21.5018L48.6918 22.4018C48.4918 22.4018 48.2918 22.2018 48.3918 22.0018L49.6918 19.3018L58.8918 11.2018C59.1918 10.9018 59.7918 11.0018 60.0918 11.4018Z" stroke="black" stroke-width="2" stroke-miterlimit="10" stroke-linecap="round"></path>
  <path d="M64.6914 45.6016C64.6914 45.6016 68.6914 54.1016 77.7914 53.9016" stroke="black" stroke-width="2" stroke-miterlimit="10" stroke-linecap="round" stroke-linejoin="round"></path>
  <path d="M23.5918 50.1008C23.5918 50.1008 28.5918 50.5008 31.7918 47.3008C34.7918 50.3008 39.1918 50.2008 39.1918 50.2008" stroke="black" stroke-width="2" stroke-miterlimit="10" stroke-linecap="round" stroke-linejoin="round"></path>
  <path d="M61.0918 52.8016C61.0918 52.8016 65.8918 51.8016 66.6918 48.6016" stroke="black" stroke-width="2" stroke-miterlimit="10" stroke-linecap="round" stroke-linejoin="round"></path>
  <path d="M56.2915 38C56.2915 38 53.0915 40.4 48.8915 41.7C44.6915 43 42.7915 42.9 42.7915 42.9" stroke="black" stroke-width="2" stroke-miterlimit="10" stroke-linecap="round" stroke-linejoin="round"></path>
  <path d="M71.2915 5.30078H29.7915C26.4915 5.30078 23.7915 8.00078 23.7915 11.3008V25.4008C23.7915 28.7008 26.4915 31.4008 29.7915 31.4008H32.0915V37.4008L38.0915 31.4008H63.5915L69.5915 37.4008V31.4008H71.1915C74.4915 31.4008 77.1915 28.7008 77.1915 25.4008V11.3008C77.2915 8.00078 74.5915 5.30078 71.2915 5.30078Z" stroke="black" stroke-width="2" stroke-miterlimit="10" stroke-linecap="round" stroke-linejoin="round"></path>
</svg>