<svg xmlns:xlink="http://www.w3.org/1999/xlink" width="101" height="80" viewBox="0 0 101 80" fill="none" xmlns="http://www.w3.org/2000/svg">
  <path d="M27.59 44.5H11.79V69.6H27.59V44.5Z" stroke="black" stroke-width="2" stroke-miterlimit="10" stroke-linecap="round" stroke-linejoin="round"></path>
  <path d="M27.9902 48.1992C27.9902 48.1992 35.2902 48.1992 38.9902 48.1992C43.0902 48.1992 47.2902 53.0992 49.1902 53.0992C51.0902 53.0992 56.0902 53.0992 57.7902 53.0992C63.4902 53.0992 63.4902 60.6992 58.4902 60.6992C55.4902 60.6992 42.9902 60.6992 42.9902 60.6992" stroke="black" stroke-width="2" stroke-miterlimit="10" stroke-linecap="round" stroke-linejoin="round"></path>
  <path d="M28.29 66.6989C31.99 66.6989 46.99 74.2989 51.69 74.2989C56.39 74.2989 79.89 60.6989 82.29 59.4989C87.19 56.9989 78.19 54.0989 74.19 55.5989C70.59 56.8989 60.39 60.4989 60.39 60.4989" stroke="black" stroke-width="2" stroke-miterlimit="10" stroke-linecap="round" stroke-linejoin="round"></path>
  <path d="M50.8902 45.4992C55.8056 45.4992 59.7902 41.5146 59.7902 36.5992C59.7902 31.6839 55.8056 27.6992 50.8902 27.6992C45.9749 27.6992 41.9902 31.6839 41.9902 36.5992C41.9902 41.5146 45.9749 45.4992 50.8902 45.4992Z" stroke="black" stroke-width="2" stroke-miterlimit="10" stroke-linecap="round" stroke-linejoin="round"></path>
  <path d="M65.0904 23.6984C70.0058 23.6984 73.9904 19.7138 73.9904 14.7984C73.9904 9.8831 70.0058 5.89844 65.0904 5.89844C60.1751 5.89844 56.1904 9.8831 56.1904 14.7984C56.1904 19.7138 60.1751 23.6984 65.0904 23.6984Z" stroke="black" stroke-width="2" stroke-miterlimit="10" stroke-linecap="round" stroke-linejoin="round"></path>
  <path d="M65.0903 10.8008V18.9008" stroke="black" stroke-width="2" stroke-miterlimit="10" stroke-linecap="round" stroke-linejoin="round"></path>
  <path d="M50.8901 32.6016V40.7016" stroke="black" stroke-width="2" stroke-miterlimit="10" stroke-linecap="round" stroke-linejoin="round"></path>
</svg>