<svg xmlns:xlink="http://www.w3.org/1999/xlink" width="101" height="80" viewBox="0 0 101 80" fill="none" xmlns="http://www.w3.org/2000/svg">
  <path d="M50.992 15.3984C64.892 15.3984 76.192 26.6984 76.192 40.5984C76.192 54.4984 64.892 65.6984 50.992 65.6984C37.092 65.6984 25.792 54.3984 25.792 40.4984C25.792 33.5984 28.592 27.2984 33.192 22.6984" stroke="black" stroke-width="2" stroke-miterlimit="10" stroke-linecap="round"></path>
  <path d="M51.0918 24.8008V41.9008L63.0918 45.9008" stroke="black" stroke-width="2" stroke-miterlimit="10" stroke-linecap="round"></path>
  <path d="M28.1914 22.3984H33.8914V28.1984" stroke="black" stroke-width="2" stroke-miterlimit="10" stroke-linecap="round"></path>
  <path d="M29.792 41.8984H34.292" stroke="black" stroke-width="2" stroke-miterlimit="10" stroke-linecap="round"></path>
  <path d="M51.0918 61.9969V57.7969" stroke="black" stroke-width="2" stroke-miterlimit="10" stroke-linecap="round"></path>
  <path d="M67.9922 41.8984H72.4922" stroke="black" stroke-width="2" stroke-miterlimit="10" stroke-linecap="round"></path>
  <path d="M37.292 55.5984L40.492 52.3984" stroke="black" stroke-width="2" stroke-miterlimit="10" stroke-linecap="round"></path>
  <path d="M65.5918 55.7008L62.5918 52.8008" stroke="black" stroke-width="2" stroke-miterlimit="10" stroke-linecap="round"></path>
  <path d="M63.0918 29.7L66.2918 26.5" stroke="black" stroke-width="2" stroke-miterlimit="10" stroke-linecap="round"></path>
  <path d="M50.9916 72.5984C68.7199 72.5984 83.0916 58.2268 83.0916 40.4984C83.0916 22.7701 68.7199 8.39844 50.9916 8.39844C33.2633 8.39844 18.8916 22.7701 18.8916 40.4984C18.8916 58.2268 33.2633 72.5984 50.9916 72.5984Z" stroke="black" stroke-width="2" stroke-miterlimit="10" stroke-linecap="round"></path>
</svg>