<svg xmlns:xlink="http://www.w3.org/1999/xlink" width="100" height="80" viewBox="0 0 100 80" fill="none" xmlns="http://www.w3.org/2000/svg">
  <path d="M63.7996 51.1984V40.3984C63.7996 38.9984 62.7996 37.8984 61.4996 37.8984H9.39961C8.19961 37.8984 7.09961 38.9984 7.09961 40.3984V70.1984C7.09961 71.5984 8.09961 72.6984 9.39961 72.6984H61.5996C62.7996 72.6984 63.7996 71.5984 63.7996 70.2984V51.1984V51.1984Z" stroke="black" stroke-width="2" stroke-miterlimit="10" stroke-linecap="round"></path>
  <path d="M24.6998 62.5H13.2998C12.3998 62.5 11.7998 61.8 11.7998 61V44.5C11.7998 43.6 12.4998 43 13.2998 43H24.6998C25.5998 43 26.1998 43.7 26.1998 44.5V61C26.2998 61.8 25.5998 62.5 24.6998 62.5Z" stroke="black" stroke-width="2" stroke-miterlimit="10" stroke-linecap="round"></path>
  <path d="M81.6 39.8984L87.5 47.9984C88.1 48.7984 87.5 49.9984 86.5 49.9984H64.5" stroke="black" stroke-width="2" stroke-miterlimit="10" stroke-linecap="round"></path>
  <path d="M55.3001 37.2008L48.5001 27.8008C47.9001 27.0008 48.5001 25.8008 49.5001 25.8008H70.7001C71.1001 25.8008 71.5001 26.0008 71.7001 26.3008L79.1001 36.3008" stroke="black" stroke-width="2" stroke-miterlimit="10" stroke-linecap="round"></path>
  <path d="M54.2004 72.8L51.6004 62.4C51.1004 60.9 49.7004 59.8 48.1004 59.8H46.7004C39.9004 59.8 35.0004 55.8 35.0004 52.4C35.0004 49.4 37.4004 47 40.4004 47C43.4004 47 45.8004 49.4 45.8004 52.4C45.8004 56.6 41.0004 59.8 34.2004 59.8H33.0004C31.3004 59.8 29.8004 61 29.4004 62.6L27.9004 72.7" stroke="black" stroke-width="2" stroke-miterlimit="10" stroke-linecap="round"></path>
  <path d="M34.4 67.6016L33.5 72.8016" stroke="black" stroke-width="2" stroke-miterlimit="10" stroke-linecap="round"></path>
  <path d="M47.3008 67.6016L48.6008 72.8016" stroke="black" stroke-width="2" stroke-miterlimit="10" stroke-linecap="round"></path>
  <path d="M63.8004 54.9H92.0004C93.2004 54.9 94.2004 53.8 94.2004 52.5V33.3V22.5C94.2004 21.1 93.2004 20 91.9004 20H39.7004C38.5004 20 37.4004 21.1 37.4004 22.5V37.4" stroke="black" stroke-width="2" stroke-miterlimit="10" stroke-linecap="round"></path>
  <path d="M55.2996 20.0008V8.60078C55.2996 7.60078 54.5996 6.80078 53.6996 6.80078H17.1996C16.2996 6.80078 15.5996 7.60078 15.5996 8.60078V29.5008C15.5996 30.5008 16.2996 31.3008 17.1996 31.3008H37.4996" stroke="black" stroke-width="2" stroke-miterlimit="10" stroke-linecap="round"></path>
  <path d="M86.5 25.8988L87.4 26.3988C87.9 26.6988 88.1 27.2988 87.8 27.7988L79.9 42.1988L77 44.7988C76.8 44.8988 76.5 44.7988 76.5 44.5988L77.2 40.6988L85.1 26.2988C85.4 25.7988 86 25.5988 86.5 25.8988Z" stroke="black" stroke-width="2" stroke-miterlimit="10" stroke-linecap="round"></path>
  <path d="M86.9998 29.1969L84.2998 27.7969" stroke="black" stroke-width="2" stroke-miterlimit="10" stroke-linecap="round"></path>
  <path d="M79.9002 42.1981C79.9002 42.1981 79.8002 41.0981 79.0002 40.6981C78.2002 40.2981 77.2002 40.7981 77.2002 40.7981" stroke="black" stroke-width="2" stroke-miterlimit="10" stroke-linecap="round"></path>
  <path d="M24.0996 16.1987V21.7987C24.0996 22.4987 24.8996 22.8987 25.3996 22.4987L29.3996 19.6987C29.8996 19.3987 29.8996 18.5987 29.3996 18.2987L25.3996 15.4987C24.8996 15.0987 24.0996 15.4987 24.0996 16.1987Z" stroke="black" stroke-width="2" stroke-miterlimit="10" stroke-linecap="round"></path>
  <path d="M37.5004 23.6008H31.1004C30.5004 23.6008 29.9004 23.1008 29.9004 22.4008V15.5008C29.9004 14.9008 30.4004 14.3008 31.1004 14.3008H43.0004C43.6004 14.3008 44.2004 14.8008 44.2004 15.5008V20.0008" stroke="black" stroke-width="2" stroke-miterlimit="10" stroke-linecap="round"></path>
</svg>