<svg xmlns:xlink="http://www.w3.org/1999/xlink" width="100" height="80" viewBox="0 0 100 80" fill="none" xmlns="http://www.w3.org/2000/svg">
  <path d="M79.5998 75.1H22.1998C20.0998 75.1 18.2998 73.4 18.2998 71.2V35.4C18.2998 33.3 19.9998 31.5 22.1998 31.5H79.5998C81.6998 31.5 83.4998 33.2 83.4998 35.4V71.2C83.4998 73.4 81.6998 75.1 79.5998 75.1Z" stroke="black" stroke-width="2" stroke-miterlimit="10" stroke-linecap="round"></path>
  <path d="M78.9004 14.6008L23.1004 28.1008C21.0004 28.6008 18.9004 27.3008 18.4004 25.2008L17.3004 20.8008C16.8004 18.7008 18.1004 16.6008 20.2004 16.1008L76.0004 2.70076C78.1004 2.20076 80.2004 3.50076 80.7004 5.60076L81.8004 10.0008C82.2004 12.0008 81.0004 14.1008 78.9004 14.6008Z" stroke="black" stroke-width="2" stroke-miterlimit="10" stroke-linecap="round"></path>
  <path d="M26.9006 14.5L23.1006 28.1" stroke="black" stroke-width="2" stroke-miterlimit="10" stroke-linecap="round"></path>
  <path d="M35.0002 12.6016L31.2002 26.1016" stroke="black" stroke-width="2" stroke-miterlimit="10" stroke-linecap="round"></path>
  <path d="M43.2008 10.6016L39.3008 24.2016" stroke="black" stroke-width="2" stroke-miterlimit="10" stroke-linecap="round"></path>
  <path d="M51.3004 8.60156L47.4004 22.2016" stroke="black" stroke-width="2" stroke-miterlimit="10" stroke-linecap="round"></path>
  <path d="M59.4 6.69922L55.5 20.1992" stroke="black" stroke-width="2" stroke-miterlimit="10" stroke-linecap="round"></path>
  <path d="M67.5002 4.69922L63.7002 18.2992" stroke="black" stroke-width="2" stroke-miterlimit="10" stroke-linecap="round"></path>
  <path d="M75.6008 2.80078L71.8008 16.3008" stroke="black" stroke-width="2" stroke-miterlimit="10" stroke-linecap="round"></path>
  <path d="M40 40.9008V65.8008C40 67.5008 41.8 68.5008 43.3 67.6008L63 55.1008C64.3 54.3008 64.3 52.3008 63 51.5008L43.2 39.1008C41.8 38.2008 40 39.3008 40 40.9008Z" stroke="black" stroke-width="2" stroke-miterlimit="10" stroke-linecap="round"></path>
  <path d="M18.2998 43.8984H39.9998" stroke="black" stroke-width="2" stroke-miterlimit="10" stroke-linecap="round"></path>
  <path d="M51.7998 43.8984H83.4998" stroke="black" stroke-width="2" stroke-miterlimit="10" stroke-linecap="round"></path>
</svg>